/* XPM */
static char *battery_mid_charging[] = {
/* columns rows colors chars-per-pixel */
"32 32 23 1 ",
"  c None",
". c #08211F",
"X c #082522",
"o c #092623",
"O c #0C332F",
"+ c #242D2C",
"@ c #283231",
"# c #114944",
"$ c #114A44",
"% c #364443",
"& c #17645C",
"* c #1D7E75",
"= c #22948A",
"- c #25A295",
"; c #25A196",
": c #25A296",
"> c #26A69A",
", c #6B8683",
"< c #87A9A6",
"1 c #9FC7C4",
"2 c #ADD9D5",
"3 c #B2DFDB",
"4 c #C1E5E2",
/* pixels */
"                                ",
"                                ",
"            44444444            ",
"            33333333            ",
"      44444433333333444444      ",
"      33333333333333333333      ",
"      33333333333333333333      ",
"      33333333333333333333      ",
"      333333333<3333333333      ",
"      333333332%3333333333      ",
"      33333333,+3333333333      ",
"      33333331@+3333333333      ",
"      >>>>>>>#..>>>>>>>>>>      ",
"      >>>>>>*...>>>>>>>>>>      ",
"      >>>>>;O........#>>>>      ",
"      >>>>>&........o=>>>>      ",
"      >>>>=o........&>>>>>      ",
"      >>>>$........O:>>>>>      ",
"      >>>>>>>>>>...*>>>>>>      ",
"      >>>>>>>>>>..#>>>>>>>      ",
"      >>>>>>>>>>.o=>>>>>>>      ",
"      >>>>>>>>>>.&>>>>>>>>      ",
"      >>>>>>>>>>O;>>>>>>>>      ",
"      >>>>>>>>>>*>>>>>>>>>      ",
"      >>>>>>>>>>>>>>>>>>>>      ",
"      >>>>>>>>>>>>>>>>>>>>      ",
"      >>>>>>>>>>>>>>>>>>>>      ",
"      >>>>>>>>>>>>>>>>>>>>      ",
"      ;>>>>>>>>>>>>>>>>>>:      ",
"       ;>>>>>>>>>>>>>>>>:       ",
"                                ",
"                                "
};
