/* XPM */
static char *battery_charging[] = {
/* columns rows colors chars-per-pixel */
"32 32 14 1 ",
"  c None",
". c #001E1B",
"X c #00221E",
"o c #00221F",
"O c #002E2A",
"+ c #00423C",
"@ c #005A52",
"# c #007267",
"$ c #00867A",
"% c #009284",
"& c #009384",
"* c #009285",
"= c #009688",
"- c #33ABA0",
/* pixels */
"                                ",
"                                ",
"            --------            ",
"            ========            ",
"      ------========------      ",
"      ====================      ",
"      ====================      ",
"      ====================      ",
"      ====================      ",
"      =========#==========      ",
"      ========%O==========      ",
"      ========@.==========      ",
"      =======$X.==========      ",
"      =======+..==========      ",
"      ======#...==========      ",
"      =====%O........+====      ",
"      =====@........O$%===      ",
"      ====$X........@=%===      ",
"      ====+........O%=====      ",
"      ==========...#======      ",
"      ==========..+=======      ",
"      ==========.X$=======      ",
"      ==========.@========      ",
"      ==========O%========      ",
"      ==========#=========      ",
"      ====================      ",
"      ====================      ",
"      ====================      ",
"      %==================%      ",
"       &================%       ",
"                                ",
"                                "
};
