/* XPM */
static char *calendar[] = {
/* columns rows colors chars-per-pixel */
"32 32 38 1 ",
"  c None",
". c #36459B",
"X c #36469C",
"o c #3848A0",
"O c #3949A3",
"+ c #3D4EAF",
"@ c #3D4FB1",
"# c #3E4FB1",
"$ c #3E50B2",
"% c #3F51B4",
"& c #3F51B5",
"* c #6D7BC6",
"= c #2196F3",
"- c #2598F3",
"; c #339DF1",
": c #03A3EB",
"> c #03A9F4",
", c #36A0F4",
"< c #48A9F6",
"1 c #4AA9F6",
"2 c #4DAAF4",
"3 c #4DABF5",
"4 c #A4A8BD",
"5 c #A5A8BD",
"6 c #A5A9BD",
"7 c #A5A9BE",
"8 c gray70",
"9 c gray72",
"0 c #B9B9B9",
"q c #CECECE",
"w c gray82",
"e c gray83",
"r c #D8D8D8",
"t c #F4F4F4",
"y c gray96",
"u c gray97",
"i c #F9F9F9",
"p c gray98",
/* pixels */
"                                ",
"  ppppppppppppppppppp233333332  ",
" pppuppppupupuppupppp=======-,2 ",
" uppppuppupppppuppupp=========; ",
" uup*&pppupppuuppuppu=========- ",
" pppp@pupupuppppppupp========== ",
" ppup&puppupuppuuuppp========== ",
" ppup@ppupppuppupppuu========== ",
" ppup@ppppupupppupppp========== ",
" pppp&puupupppupppuup========== ",
" pupp@pupupppupupuppu========== ",
" puppupppppupuppppupp:>>>>>>>>> ",
" ppuppupuppuppupuuppu:>>>>>>>>> ",
" ppupuppuppupupppppup:>>>>>>>>> ",
" pppppuuppppppuupppup:>>>>>>>>> ",
" pupuppppuupupppuuppp:>>>>>>>>> ",
" uupuppppppupuuppppup:>>>>>>>>> ",
" pppppuuuupppppppuppu:>>>>>>>>> ",
" ppupuppppupuppuupupp:>>>>>>>>> ",
" ppuppuppuppuppuppupp:>>>>>>>>> ",
" ppupuppppuppupppuppu:>>>>>>>>> ",
" ppppupuupuuq98888887+&&&&&&&&& ",
" pupppuppppw88888887O@&&&&&&&&& ",
" pupupppuup98888887O+&&&&&&&&&& ",
" ppupppuppu8888887O+&&&&&&&&&&& ",
" ppupuppupp888887O+&&&&&&&&&&&& ",
" pppupupupp88884O+$&&&&&&&&&&&& ",
" pupppupppu8884O+$&&&&&&&&&&&&& ",
" uppppupppu887O@&&&&&&&&&&&&&&@ ",
" euuupupupp85O+$&&&&&&&&&&&&&&X ",
"  euppppppp7X@&&&&&&&&&&&&&&$.  ",
"                                "
};
