/* XPM */
static char *connected[] = {
/* columns rows colors chars-per-pixel */
"32 32 59 1 ",
"  c None",
". c #76A63E",
"X c #7AAC41",
"o c #7DB043",
"O c #80B444",
"+ c #83B846",
"@ c #85BB47",
"# c #88BE48",
"$ c #89BF48",
"% c #8CBB59",
"& c #8AC24A",
"* c #8BC34A",
"= c #8BC24B",
"- c #8CC34B",
"; c #8DC44D",
": c #8EC44E",
"> c #8FC550",
", c #90C653",
"< c #93C756",
"1 c #94C858",
"2 c #96C95B",
"3 c #9BCB62",
"4 c #9CCB64",
"5 c #9DCD67",
"6 c #9FCD69",
"7 c #9FCD6A",
"8 c #A1CF6B",
"9 c #A1CF6C",
"0 c #A0CE6D",
"q c #A2CF6E",
"w c #009AAD",
"e c #00A7BB",
"r c #00ADC2",
"t c #00B0C6",
"y c #00B3CA",
"u c #00B7CE",
"i c #00B9D1",
"p c #00BBD2",
"a c #01BBD3",
"s c #00BCD4",
"d c #03BDD5",
"f c #05BDD5",
"g c #07BED5",
"h c #0ABFD6",
"j c #0DBFD6",
"k c #12C1D7",
"l c #18C2D8",
"z c #1BC3D9",
"x c #24C7DA",
"c c #27C7DA",
"v c #29C7DA",
"b c #2CC7DA",
"n c #2EC7DB",
"m c #2EC8DB",
"M c #2FC8DC",
"N c #2EC9DC",
"B c #2FC9DC",
"V c #30C9DB",
"C c #33C9DD",
/* pixels */
"                                ",
"                                ",
"                    q           ",
"                    <q          ",
"                    *,7         ",
"                    **:5        ",
"            qqqqqqqq***-37      ",
"            *************2q     ",
"            **************<8    ",
"            ***************>7   ",
"            ****************;4  ",
"            ******************% ",
"           n****************$   ",
"          Vl***************@    ",
"         mjs**************O     ",
"        vgssoooooooo*****.      ",
"      NcssssCCCCCCCC****        ",
"     Nzsssssssssssss**$         ",
"    Ckssssssssssssss*+          ",
"   vhsssssssssssssssX           ",
"  vgssssssssssssssss            ",
"  ssssssssssssssssss            ",
"   pssssssssssssssss            ",
"    ysssssssssssssss            ",
"     rssssssssssssss            ",
"      wsssssssssssss            ",
"        psss                    ",
"         uss                    ",
"          ts                    ",
"           e                    ",
"                                ",
"                                "
};
