/* XPM */
static char *disconnected[] = {
/* columns rows colors chars-per-pixel */
"32 32 216 2 ",
"   c None",
".  c #D1392E",
"X  c #D23A2F",
"o  c #D43A2F",
"O  c #D73B30",
"+  c #E33E33",
"@  c #EA4034",
"#  c #EB4034",
"$  c #EE4134",
"%  c #EE4135",
"&  c #F14235",
"*  c #F24335",
"=  c #F34335",
"-  c #F24236",
";  c #F24337",
":  c #F34337",
">  c #F44336",
",  c #F44437",
"<  c #F44438",
"1  c #F24A3D",
"2  c #F34A3D",
"3  c #F44B3F",
"4  c #AA3F4F",
"5  c #A3425C",
"6  c #B4465D",
"7  c #AA4969",
"8  c #A8496B",
"9  c #AA496B",
"0  c #C1424E",
"q  c #C54757",
"w  c #C64756",
"e  c #F54D41",
"r  c #F54E42",
"t  c #EE5A4F",
"y  c #F55247",
"u  c #F55347",
"i  c #F55549",
"p  c #F5554A",
"a  c #F15D52",
"s  c #F66358",
"d  c #E6827A",
"f  c #37438E",
"g  c #37469D",
"h  c #37479E",
"j  c #3D479D",
"k  c #3949A4",
"l  c #394AA5",
"z  c #394BA5",
"x  c #3A4AA7",
"c  c #3A4CA9",
"v  c #3C4CAA",
"b  c #3D4DAE",
"n  c #3C4FAE",
"m  c #3D4EAF",
"M  c #3D4FB0",
"N  c #3E4FB1",
"B  c #3E50B1",
"V  c #3E50B2",
"C  c #3F50B3",
"Z  c #3F50B4",
"A  c #3E51B4",
"S  c #3F51B4",
"D  c #3F51B5",
"F  c #58488D",
"G  c #5E4F9F",
"H  c #424DAB",
"J  c #4451B1",
"K  c #4552B1",
"L  c #4451B2",
"P  c #4455B2",
"I  c #4052B5",
"U  c #4153B5",
"Y  c #4354B4",
"T  c #4254B5",
"R  c #4254B6",
"E  c #4354B6",
"W  c #4657B5",
"Q  c #4455B7",
"!  c #4456B7",
"~  c #4556B7",
"^  c #4557B7",
"/  c #4657B7",
"(  c #4D5CB4",
")  c #4D5DB6",
"_  c #4758B8",
"`  c #4759B8",
"'  c #4859B8",
"]  c #495AB8",
"[  c #495AB9",
"{  c #4A5BB9",
"}  c #4B5CBA",
"|  c #4C5DBA",
" . c #4F5FBB",
".. c #5060BB",
"X. c #5061BC",
"o. c #5161BC",
"O. c #5262BC",
"+. c #5363BC",
"@. c #5363BD",
"#. c #5464BD",
"$. c #5665BE",
"%. c #5666BE",
"&. c #5767BE",
"*. c #5B69BC",
"=. c #5868BF",
"-. c #5968BF",
";. c #5969BF",
":. c #5A69BE",
">. c #5A6ABF",
",. c #5B6BBF",
"<. c #5B6AC0",
"1. c #5F6EC1",
"2. c #616FC0",
"3. c #606EC1",
"4. c #606FC1",
"5. c #6070C1",
"6. c #6270C2",
"7. c #6271C3",
"8. c #6272C2",
"9. c #6272C3",
"0. c #6372C3",
"q. c #6470C3",
"w. c #6472C3",
"e. c #6573C3",
"r. c #6372C4",
"t. c #6472C4",
"y. c #6573C4",
"u. c #6674C4",
"i. c #6876C5",
"p. c #6877C5",
"a. c #6977C5",
"s. c #6A78C6",
"d. c #6B79C6",
"f. c #6C7AC6",
"g. c #6D7BC7",
"h. c #6F7DC8",
"j. c #717FC8",
"k. c #7683CA",
"l. c #7783CA",
"z. c #7784CB",
"x. c #7883CA",
"c. c #F59089",
"v. c #F8948D",
"b. c #F9948D",
"n. c #FAADA8",
"m. c #FAAEA8",
"M. c #FBB3AE",
"N. c #8893D0",
"B. c #8893D1",
"V. c #969FD6",
"C. c #96A0D7",
"Z. c #98A2D7",
"A. c #9DA6D9",
"S. c #9DA7D9",
"D. c #A1AADB",
"F. c #A2AADB",
"G. c #A2ABDB",
"H. c #A3ACDC",
"J. c #A4ACDC",
"K. c #A5ADDC",
"L. c #A7AFDD",
"P. c #ABB3DE",
"I. c #B0B7E0",
"U. c #B1B8E1",
"Y. c #B2B9E1",
"T. c #FDDEDC",
"R. c #FDDFDC",
"E. c #FDE0DF",
"W. c #FDE1DF",
"Q. c #FDE2DF",
"!. c #C1C6E7",
"~. c #C2C8E7",
"^. c #C2C7E8",
"/. c #C3C8E8",
"(. c #C3C9E8",
"). c #CBD0EB",
"_. c #CDD1EC",
"`. c #CED3EC",
"'. c #CFD3EC",
"]. c #D0D4ED",
"[. c #D0D5ED",
"{. c #D3D7EE",
"}. c #D5D9EF",
"|. c #D6D9EF",
" X c #D6DAEF",
".X c #D7DBF0",
"XX c #D8DCF0",
"oX c #DCDFF1",
"OX c #DDE0F2",
"+X c #DFE2F2",
"@X c #DFE2F3",
"#X c #FDE4E2",
"$X c #FDE5E2",
"%X c #FDE4E3",
"&X c #E0E3F3",
"*X c #E8EAF6",
"=X c #E8EBF6",
"-X c #E9EBF7",
";X c #EAECF7",
":X c #EBEDF7",
">X c #ECEEF8",
",X c #EDEFF8",
"<X c #EEEFF8",
"1X c #EEF0F9",
"2X c #EFF1F9",
"3X c #F0F1F9",
"4X c #F1F3FA",
"5X c #F4F5FB",
"6X c #F6F7FC",
"7X c #F7F7FC",
"8X c #F8F9FC",
"9X c #F9FAFD",
"0X c #FAFAFD",
"qX c #FBFBFD",
"wX c #FCFDFE",
"eX c white",
/* pixels */
"                                                                ",
"                          5.t.u.u.u.t.t.                        ",
"                    t.7.:. .~ I I I '  .&.5.7.                  ",
"                t.<. .D D D D D D D D D D D  .1.5.              ",
"              t. .I I D D I I I D D D D D D D D X.7.            ",
"            5.` D D D D 7.F.&X8XeX8X&XG.5.D D D I ' 5.          ",
"          1.! D I D <.^.*X^.4XN.eXN.2X!.-X/.:.D D D ~ 1.        ",
"        2.` D D I z.,XV.&.4X5.I eXD 7.4X:.C.,Xk.D D I ' 5.      ",
"        X.D D D z.,Xu.I Y.G.D I eXD I F.I.I a.,Xz.D D D X.      ",
"      :.I D D <.6XA.Q } 4X .D I eXD D X.4X' ` L.5X<.D D D :.    ",
"      } I D D /.I.).2X'.OXa.X.! eX~ X.g.&X{.4X^.P.^.D D D }     ",
"      I I I 5.*XQ D <.'.XX|.2X8XeX8X,X{..X).X.D Q -X2.D D I     ",
"    ( D D D H.G.D D D '.h.D D I eXD D D h._.D D D K.F.D D D (   ",
"    P D D D |.d.D D D -X#.D D I eXD D D &.-XD D D d..XD D D /   ",
"    Y D D D ,XX.D D D 6X` D D I eXD D D ' 6XD D D #.:XD D D /   ",
"    Y D D D wXeXeXeXeXeXeXeXeXeXeXeXeXeXT.v.s 1 e s v.G D D Y   ",
"    M D D D ,XX.Y D D 6X' D D Q eXI J 9 , > > > > > > = 9 L V   ",
"    M D D I .Xf.D D D :X&.D D I eXJ w > , , > > > > , , > w H   ",
"    l I D D H.K.D D D '.h.D I I eX9 > > , 3 > = > > 3 , > : 6   ",
"      D D D 5.=XQ D <.'..X.X3X8XT.< > , m.W.i , > y T.M.: = =   ",
"      I D D D /.Y.'.2X'.oXi.X.~ c.> > e E.eXT.y u T.eXT.e > > % ",
"      l D D D <.6XS.Q } 3X .D D a > > > y T.eX#XW.eXW.i < > > % ",
"        D D D D z.:Xd.D Y.F.I I 1 > > > > y W.eXeX%Xi > > > > = ",
"        g D D D D k.2XC.<.3X2.I 1 > > > > y W.eXeX%Xi > > > = = ",
"          v D D D D :.^.*X/.4XN.t > > , y T.eX%XW.eXW.i , > > # ",
"            M D D D D D 5.F.&X8Xd > > e T.eXT.y u T.eXT.e , , o ",
"              c D D D D D D D D F = > , m.W.i > , y T.M., > >   ",
"                g V D D D D D D M 5 > , , e > > > > e , > > o   ",
"                    l D D D D D D j 0 = = > > > > > > > > +     ",
"                          l n V D V f 4 = = > > > > > > o       ",
"                                          X @ = = # X           ",
"                                                                "
};
