/* XPM */
static char *volume_muted[] = {
/* columns rows colors chars-per-pixel */
"32 32 66 1 ",
"  c None",
". c #879197",
"X c #8C979D",
"o c #8C989E",
"O c #8F9BA1",
"+ c #919DA4",
"@ c #939EA5",
"# c #98A5AB",
"$ c #99A5AC",
"% c #99A7AC",
"& c #9AA6AD",
"* c #9EA9B0",
"= c #9DAAB0",
"- c #A1AEB3",
"; c #A3B0B7",
": c #A6B3B9",
"> c #A6B4BA",
", c #A8B6BD",
"< c #A9B6BD",
"1 c #ABB8BB",
"2 c #AAB8BE",
"3 c #ABB9BF",
"4 c #AEBAC2",
"5 c #AFBCC2",
"6 c #AEBCC3",
"7 c #AEBDC3",
"8 c #AFBCC4",
"9 c #AFBDC4",
"0 c #AFBDC5",
"q c #AFBEC4",
"w c #B0BBC2",
"e c #B2BCC3",
"r c #B0BDC4",
"t c #B1BEC4",
"y c #B0BEC5",
"u c #B1BFC5",
"i c #B1BFC6",
"p c #B2BFC6",
"a c #B2C0C7",
"s c #B3C0C7",
"d c #B3C1C8",
"f c #B4C2C8",
"g c #B5C2C8",
"h c #B6C3C9",
"j c #B7C3CA",
"k c #B6C4CA",
"l c #B8C5CA",
"z c #B8C4CB",
"x c #B8C5CB",
"c c #BAC5CC",
"v c #B9C7CC",
"b c #BBC6CD",
"n c #BCC7CD",
"m c #BBC8CD",
"M c #BDCACD",
"N c #BCC8CE",
"B c #BDC9CE",
"V c #BDC8CF",
"C c #BEC9CE",
"Z c #BEC9CF",
"A c #BDCACF",
"S c #BECACE",
"D c #BEC9D0",
"F c #BFCBD0",
"G c #BECBD1",
"H c #C0CBD1",
/* pixels */
"                                ",
"                                ",
"               D    SZ          ",
"              Dz    szZZ        ",
"             Dzy    yyyjD       ",
"            Dzyy     *0yyZ      ",
"           Dzyyy       <yym     ",
"          Dzyyyy        ;yyv    ",
"         Dzyyyyy         :yyn   ",
"        Dzyyyyyy          6ys   ",
"  HHHHHHzyyyyyyy    G     Xy0j  ",
"  yyyyyyyyyyyyyy    kZ     40s  ",
"  yyyyyyyyyyyyyy    ysm    &yye ",
"  yyyyyyyyyyyyyy    yyk     yy6 ",
"  yyyyyyyyyyyyyy    yys     yye ",
"  yyyyyyyyyyyyyy    yy01    yyy ",
"  yyyyyyyyyyyyyy    yyy-    yy0 ",
"  yyyyyyyyyyyyyy    yyy     yy3 ",
"  yyyyyyyyyyyyyy    yy6     yy: ",
"  yyyyyyyyyyyyyy    y0%    eyy% ",
"  yyyyyyyyyyyyyy    y:     fy0  ",
"  yyyyyyyyyyyyyy    *      sy3  ",
"        Oyyyyyyy          kyyo  ",
"         Oyyyyyy         nsy<   ",
"          Oyyyyy        Zdyy    ",
"           Oyyyy       Zj0y     ",
"            Oyyy     Zms00.     ",
"             Oyy    Zks04       ",
"              +y    0y0&        ",
"               +    <+          ",
"                                ",
"                                "
};
