/* XPM */
static char *volume_muted[] = {
/* columns rows colors chars-per-pixel */
"32 32 23 1 ",
"  c None",
". c #CE2E2E",
"X c #CF2E2E",
"o c #D32F2F",
"O c #D43232",
"+ c #D43333",
"@ c #D95151",
"# c #DA5151",
"$ c #DB5757",
"% c #DB5858",
"& c #DC5959",
"* c #DF6A6A",
"= c #E06B6B",
"- c #E06D6D",
"; c #E06E6E",
": c #E89393",
"> c #E99696",
", c #FEF8F8",
"< c #FEF9F9",
"1 c #FEFAFA",
"2 c #FEFBFB",
"3 c #FEFCFC",
"4 c white",
/* pixels */
"                                ",
"                                ",
"          $&&&&&&&&&&$          ",
"         @+oooooooooo+@         ",
"        @+oooooooooooo+@        ",
"       @+oooooooooooooo+@       ",
"      @+oooooooooooooooo+@      ",
"     @+oooooooooooooooooo+@     ",
"    @+oooooooooooooooooooo+@    ",
"   @+ooooo>=oooooooo=:ooooo+@   ",
"  @+ooooo>4<*oooooo;<4:ooooo+@  ",
"  +oooooo*<44*oooo=<4<;oooooo+  ",
"  oooooooo*,4<;Oo=,4<;+ooooooo  ",
"  ooooooooo*<4<;=,4<;ooooooooo  ",
"  oooooooooo*,4<<4<;oooooooooo  ",
"  ooooooooooo*<444;ooooooooooo  ",
"  ooooooooooo=<444*ooooooooooo  ",
"  oooooooooo=<4<<44*oooooooooo  ",
"  ooooooooo=<4<;*<4<;Ooooooooo  ",
"  oooooooo=<4<;oo*<4<*oOoooooo  ",
"  ooooooo=,4<;Oooo*,4<*Ooooooo  ",
"  .oooooo>4<=oooooO*<4:oooooo.  ",
"   .oooooo>=oooooooo*:oooooo.   ",
"    .oooooooooooooooOooooooo    ",
"     .oooooooooooooooooooo.     ",
"      .oooooooooooooooooo.      ",
"       .oooooooooooooooo.       ",
"        .oooooooooooooo.        ",
"         .oooooooooooo.         ",
"          .ooooooooooo          ",
"                                ",
"                                "
};
